<svg xmlns="http://www.w3.org/2000/svg" width="230" height="42.64" viewBox="0 0 230 42.64">
  <g id="_1" data-name="1" transform="translate(-0.047 0.064)">
    <path id="패스_1" data-name="패스 1" d="M243.19,276.313v19.926H234.9V276.313h-6.4V268.3h21.051v8.013Z" transform="translate(-181.307 -254.39)" fill="#fff"/>
    <path id="패스_2" data-name="패스 2" d="M305.7,266.3a13.791,13.791,0,0,1,10.192,4.323,14.676,14.676,0,1,1-20.772-.073A14.462,14.462,0,0,1,305.7,266.3Zm-.246,8.224a5.8,5.8,0,0,0-4.358,1.9,6.255,6.255,0,0,0-1.792,4.534,6.361,6.361,0,0,0,1.792,4.534,6.01,6.01,0,0,0,8.751,0,6.361,6.361,0,0,0,1.757-4.534,6.5,6.5,0,0,0-1.757-4.569,5.939,5.939,0,0,0-4.393-1.863Z" transform="translate(-221.712 -253.092)" fill="#fff"/>
    <path id="패스_3" data-name="패스 3" d="M392.53,279.268h7.907A10.45,10.45,0,0,1,403,285.98a8.962,8.962,0,0,1-2.987,6.853,10.42,10.42,0,0,1-7.38,2.776,12.7,12.7,0,0,1-9.664-4.288A15.008,15.008,0,0,1,379,280.779a14.094,14.094,0,0,1,4.042-10.332,13.674,13.674,0,0,1,10.121-4.147,14.549,14.549,0,0,1,4.569.843v8.294a8.715,8.715,0,0,0-3.585-.914,6.491,6.491,0,0,0-4.779,1.827,6.291,6.291,0,0,0-1.863,4.709,6.458,6.458,0,0,0,1.722,4.709,6.225,6.225,0,0,0,4.639,1.757c1.265,0,1.863-.351,1.863-1.089s-.387-.808-1.195-.808h-2Z" transform="translate(-278.916 -253.092)" fill="#fff"/>
    <path id="패스_4" data-name="패스 4" d="M469.2,279.159v6.22h-5.447a2.811,2.811,0,0,0-1.546.316,1.3,1.3,0,0,0-.457,1.125,1.286,1.286,0,0,0,.457,1.16,3.992,3.992,0,0,0,1.933.281h5.588v7.978h-6.537c-3.058,0-5.412-.738-7.029-2.214a8.18,8.18,0,0,1-2.46-6.361v-10.93a8.191,8.191,0,0,1,2.32-6.22,8.967,8.967,0,0,1,6.466-2.214h7.24v8.013h-5.307c-1.441,0-2.144.457-2.144,1.406a1.265,1.265,0,0,0,.492,1.125,3.765,3.765,0,0,0,1.827.316Z" transform="translate(-327.364 -254.39)" fill="#fff"/>
    <path id="패스_5" data-name="패스 5" d="M519.629,276.313v19.926H511.3V268.3h10.824c4.744,0,8.47,1.054,11.176,3.233a13.68,13.68,0,0,1,4.779,10.508,13.474,13.474,0,0,1-4.112,10.332,14.422,14.422,0,0,1-10.543,4.006c-.492,0-1.3,0-2.46-.07v-8.224H522.3c4.85,0,7.275-2,7.275-6.045s-2.39-5.728-7.169-5.728Z" transform="translate(-364.721 -254.39)" fill="#fff"/>
    <path id="패스_6" data-name="패스 6" d="M607.169,266.3a13.791,13.791,0,0,1,10.192,4.323,14.69,14.69,0,1,1-20.77-.07A14.5,14.5,0,0,1,607.169,266.3Zm-.246,8.224a5.8,5.8,0,0,0-4.358,1.9,6.572,6.572,0,0,0,.035,9.067,5.729,5.729,0,0,0,4.323,1.9,5.834,5.834,0,0,0,4.393-1.9,6.256,6.256,0,0,0,1.792-4.534,6.4,6.4,0,0,0-1.792-4.569,5.939,5.939,0,0,0-4.393-1.863Z" transform="translate(-417.222 -253.092)" fill="#fff"/>
    <path id="패스_7" data-name="패스 7" d="M694.031,279.268h7.942a10.6,10.6,0,0,1,2.53,6.712,8.962,8.962,0,0,1-2.987,6.853,10.42,10.42,0,0,1-7.38,2.776,12.757,12.757,0,0,1-9.665-4.288,14.855,14.855,0,0,1-3.971-10.543,14.234,14.234,0,0,1,4.042-10.332,13.619,13.619,0,0,1,10.121-4.147,14.549,14.549,0,0,1,4.569.843v8.294a8.714,8.714,0,0,0-3.585-.914,6.491,6.491,0,0,0-4.78,1.827,6.329,6.329,0,0,0-1.828,4.709,6.553,6.553,0,0,0,1.687,4.709,6.254,6.254,0,0,0,4.674,1.757c1.23,0,1.863-.351,1.863-1.089s-.422-.808-1.23-.808h-2Z" transform="translate(-474.458 -253.092)" fill="#fff"/>
    <path id="패스_8" data-name="패스 8" d="M122.234,280.068H108.353v9.278c0,1.335-.527,1.827-1.863,1.827s-3.058.035-4.6,0-1.933-.422-1.933-1.9V272.09a1.089,1.089,0,0,0-.738-1.195,8.232,8.232,0,0,1-4.85-7.064,2.869,2.869,0,0,1,2.39-3.268,2.974,2.974,0,0,1,3.268,2.671,2.907,2.907,0,0,0,3.233,2.811h13.636a3.969,3.969,0,0,1,1.265.211l11.808,4.182a.879.879,0,0,1,.668.984c-.035,6.01-.035,12.019-.035,17.994,0,1.265-.492,1.757-1.757,1.757s-3.268.035-4.92,0-1.687-.527-1.687-1.722Z" transform="translate(-94.3 -249.359)" fill="#fff"/>
    <path id="패스_9" data-name="패스 9" d="M177.111,243.951v3.022l-.668-.176-9.805-3.479c-.562-.176-.738-.457-.738-1.089.035-3.9,0-7.837,0-11.773,0-.773.105-1.441.914-1.792a1.424,1.424,0,0,1,1.827.668,4.678,4.678,0,0,0,4.92,2h1.125a3.139,3.139,0,0,1,3.479,2.179.984.984,0,0,0,1.089.668h4.674a1.453,1.453,0,0,1,1.617,1.581,19.96,19.96,0,0,1-.07,3.233,5.566,5.566,0,0,1-5.764,4.99C178.9,243.986,178.06,243.951,177.111,243.951Zm-1.441-7.029a1.371,1.371,0,0,0-1.441-1.335,1.3,1.3,0,0,0-1.265,1.441,1.335,1.335,0,0,0,1.335,1.3A1.441,1.441,0,0,0,175.67,236.923Z" transform="translate(-140.707 -228.6)" fill="#fff"/>
  </g>
</svg>
