<svg xmlns="http://www.w3.org/2000/svg" width="200.994" height="37.262" viewBox="0 0 200.994 37.262">
  <g id="_1" data-name="1" transform="translate(-0.047 0.064)">
    <path id="패스_1" data-name="패스 1" d="M241.337,275.3v17.413H234.09V275.3H228.5v-7h18.4v7Z" transform="translate(-187.253 -256.152)" fill="#fff"/>
    <path id="패스_2" data-name="패스 2" d="M303.822,266.3a12.052,12.052,0,0,1,8.906,3.778,12.825,12.825,0,1,1-18.153-.064A12.638,12.638,0,0,1,303.822,266.3Zm-.215,7.186a5.068,5.068,0,0,0-3.808,1.658,5.467,5.467,0,0,0-1.566,3.962,5.559,5.559,0,0,0,1.566,3.962,5.252,5.252,0,0,0,7.647,0,5.559,5.559,0,0,0,1.536-3.962,5.682,5.682,0,0,0-1.536-3.992,5.19,5.19,0,0,0-3.839-1.628Z" transform="translate(-230.419 -254.766)" fill="#fff"/>
    <path id="패스_3" data-name="패스 3" d="M390.824,277.633h6.91a9.132,9.132,0,0,1,2.242,5.866,7.831,7.831,0,0,1-2.61,5.989,9.106,9.106,0,0,1-6.449,2.426,11.1,11.1,0,0,1-8.446-3.747,13.115,13.115,0,0,1-3.47-9.213,12.316,12.316,0,0,1,3.532-9.029,11.95,11.95,0,0,1,8.845-3.624,12.715,12.715,0,0,1,3.992.737v7.248a7.616,7.616,0,0,0-3.133-.8,5.673,5.673,0,0,0-4.177,1.6,5.5,5.5,0,0,0-1.628,4.115,5.644,5.644,0,0,0,1.5,4.115,5.44,5.44,0,0,0,4.054,1.536c1.106,0,1.628-.307,1.628-.952s-.338-.706-1.044-.706h-1.751Z" transform="translate(-291.532 -254.766)" fill="#fff"/>
    <path id="패스_4" data-name="패스 4" d="M467.244,277.79v5.436h-4.76a2.457,2.457,0,0,0-1.351.276,1.136,1.136,0,0,0-.4.983,1.124,1.124,0,0,0,.4,1.013,3.489,3.489,0,0,0,1.689.246H467.7v6.971h-5.712a8.823,8.823,0,0,1-6.142-1.935,7.148,7.148,0,0,1-2.15-5.559v-9.551a7.158,7.158,0,0,1,2.027-5.436,7.836,7.836,0,0,1,5.651-1.935H467.7v7h-4.637c-1.259,0-1.873.4-1.873,1.228a1.106,1.106,0,0,0,.43.983,3.29,3.29,0,0,0,1.6.276Z" transform="translate(-343.29 -256.152)" fill="#fff"/>
    <path id="패스_5" data-name="패스 5" d="M518.579,275.3v17.413H511.3V268.3h9.459c4.146,0,7.4.921,9.766,2.825a11.954,11.954,0,0,1,4.177,9.183,11.774,11.774,0,0,1-3.593,9.029,12.6,12.6,0,0,1-9.213,3.5c-.43,0-1.136,0-2.15-.061v-7.186h1.167c4.238,0,6.357-1.751,6.357-5.282S525.182,275.3,521,275.3Z" transform="translate(-383.201 -256.152)" fill="#fff"/>
    <path id="패스_6" data-name="패스 6" d="M605.287,266.3a12.051,12.051,0,0,1,8.906,3.778,12.837,12.837,0,1,1-18.15-.061A12.672,12.672,0,0,1,605.287,266.3Zm-.215,7.186a5.067,5.067,0,0,0-3.808,1.658,5.743,5.743,0,0,0,.031,7.924,5.006,5.006,0,0,0,3.778,1.658,5.1,5.1,0,0,0,3.839-1.658,5.467,5.467,0,0,0,1.566-3.962,5.59,5.59,0,0,0-1.566-3.992,5.19,5.19,0,0,0-3.839-1.628Z" transform="translate(-439.29 -254.766)" fill="#fff"/>
    <path id="패스_7" data-name="패스 7" d="M692.324,277.633h6.941a9.262,9.262,0,0,1,2.211,5.866,7.831,7.831,0,0,1-2.61,5.989,9.106,9.106,0,0,1-6.449,2.426,11.148,11.148,0,0,1-8.446-3.747,12.981,12.981,0,0,1-3.47-9.213,12.439,12.439,0,0,1,3.532-9.029,11.9,11.9,0,0,1,8.845-3.624,12.715,12.715,0,0,1,3.993.737v7.248a7.616,7.616,0,0,0-3.133-.8,5.673,5.673,0,0,0-4.177,1.6,5.53,5.53,0,0,0-1.6,4.115,5.726,5.726,0,0,0,1.474,4.115,5.465,5.465,0,0,0,4.085,1.536c1.075,0,1.628-.307,1.628-.952s-.369-.706-1.075-.706h-1.75Z" transform="translate(-500.437 -254.766)" fill="#fff"/>
    <path id="패스_8" data-name="패스 8" d="M118.718,277.605H106.586v8.108c0,1.167-.461,1.6-1.628,1.6s-2.672.031-4.023,0-1.689-.369-1.689-1.658V270.634a.952.952,0,0,0-.645-1.044,7.194,7.194,0,0,1-4.238-6.173,2.507,2.507,0,0,1,2.088-2.856,2.6,2.6,0,0,1,2.856,2.334,2.54,2.54,0,0,0,2.825,2.457h11.916a3.47,3.47,0,0,1,1.106.184l10.319,3.655a.768.768,0,0,1,.584.86c-.031,5.252-.031,10.5-.031,15.724,0,1.106-.43,1.536-1.536,1.536s-2.856.031-4.3,0-1.474-.461-1.474-1.5Z" transform="translate(-94.3 -250.777)" fill="#fff"/>
    <path id="패스_9" data-name="패스 9" d="M175.7,242.007v2.641l-.584-.154-8.569-3.04c-.491-.154-.645-.4-.645-.952.031-3.409,0-6.849,0-10.288,0-.676.092-1.259.8-1.566a1.245,1.245,0,0,1,1.6.584,4.088,4.088,0,0,0,4.3,1.751h.983a2.743,2.743,0,0,1,3.04,1.9.86.86,0,0,0,.952.584h4.085a1.27,1.27,0,0,1,1.413,1.382,17.446,17.446,0,0,1-.061,2.825,4.864,4.864,0,0,1-5.037,4.361C177.263,242.038,176.526,242.007,175.7,242.007Zm-1.259-6.142a1.2,1.2,0,0,0-1.259-1.167,1.136,1.136,0,0,0-1.106,1.259,1.167,1.167,0,0,0,1.167,1.136A1.259,1.259,0,0,0,174.438,235.865Z" transform="translate(-143.878 -228.6)" fill="#fff"/>
  </g>
</svg>
